<svg xmlns="http://www.w3.org/2000/svg" viewBox="0 0 64 64">
  <defs>
    <linearGradient id="bg" x1="0" x2="1" y1="0" y2="1">
      <stop offset="0" stop-color="#2f4f40" />
      <stop offset="1" stop-color="#111b16" />
    </linearGradient>
    <linearGradient id="light" x1="0" x2="0" y1="0" y2="1">
      <stop offset="0" stop-color="#f5d77b" />
      <stop offset="1" stop-color="#b5813d" />
    </linearGradient>
  </defs>

  <rect width="64" height="64" rx="15" fill="url(#bg)" />
  <circle cx="32" cy="22" r="12" fill="url(#light)" opacity=".92" />

  <path fill="#0e2f21" d="M6 53 18 25l12 28H6Z" />
  <path fill="#164a31" d="M18 54 32 15l14 39H18Z" />
  <path fill="#0b271c" d="M34 53 47 22l13 31H34Z" />

  <path fill="#2f6b45" d="M15 53 24 33l9 20H15Z" opacity=".9" />
  <path fill="#3f8050" d="M30 54 39 31l10 23H30Z" opacity=".82" />

  <path fill="#9c7040" d="M12 54h40v5H12z" />
  <path fill="#d4b26a" d="M27 54h10l3 5H24l3-5Z" />
</svg>
